# xmcd
#
# Track frame offsets: 
#        150
#        13013
#        24715
#        35485
#        46340
#        56558
#        68805
#        80605
#        92943
#        102418
#        115645
#        134068
#        144953
#        160435
#        179548
#        195553
#        210280
#        226105
#
# Disc length: 3284 seconds
#
# Revision: 7
# Processed by: cddbd v1.5.2PL0 Copyright (c) Steve Scherf et al.
# Submitted via: ExactAudioCopy v0.95b2
#
DISCID=f70cd212
DTITLE=Various Artist - New Orleans Party Classics
DYEAR=1992
DGENRE=Blues
TTITLE0=Professor Longhair - Go To The Mardi Gras
TTITLE1=Huey "Piano" Smith and The Clowns - Don't You Just Know It
TTITLE2=Fats Domino - Jambalaya (On The Bayou)
TTITLE3=A. Tousan - Whirlaway
TTITLE4=The Hawketts - Mardi Gras Mambo
TTITLE5=Al Johnson - Carnival Time
TTITLE6='Lil' Bob and The Lollipops - I Got Loaded
TTITLE7=Frankie Ford - Sea Cruise
TTITLE8=Alvin "Red" Tyler and The Gyros - Peanut Vendor
TTITLE9=Oliver Morgan - Who Shot The LaLa
TTITLE10=Dr John - Iko Iko
TTITLE11=Professor Longhair - Big Chief - Part 1
TTITLE12=Wild Tchoupitoulas - Meet De Boys On The Battlefront
TTITLE13=Neville Brothers - Hey Pocky Way
TTITLE14=The Dirty Dozen Brass Band - Li'l Liza Jane
TTITLE15=Neville Brothers - Dancin' Jones
TTITLE16=Stop, Inc - Second Line - Part 1
TTITLE17=The Rebirth Brass Band - Do Watcha Wanna - Part 3
EXTD=
EXTT0=
EXTT1=
EXTT2=
EXTT3=
EXTT4=
EXTT5=
EXTT6=
EXTT7=
EXTT8=
EXTT9=
EXTT10=
EXTT11=
EXTT12=
EXTT13=
EXTT14=
EXTT15=
EXTT16=
EXTT17=
PLAYORDER=
